<svg xmlns="http://www.w3.org/2000/svg" xmlns:xlink="http://www.w3.org/1999/xlink" id="body_1" preserveAspectRatio="xMinYMin meet" viewBox="0 0 793 1123"><defs><clipPath id="1"><path id="" clip-rule="evenodd" transform="matrix(1 0 0 1 0 0)" d="M0 842L0 0L0 0L595 0L595 0L595 842L595 842L0 842z" /></clipPath><clipPath id="2"><path id="" clip-rule="evenodd" transform="matrix(1 0 0 1 0 0)" d="M30.6 30.59998L564.36 30.59998L564.36 30.59998L564.36 790.92L564.36 790.92L30.6 790.92L30.6 790.92L30.6 30.59998z" /></clipPath></defs><g transform="matrix(1.333333 0 0 1.333333 0 0)"><g clip-path="url(#1)"><g clip-path="url(#2)"><path id="1" transform="matrix(1 0 0 -1 0 842)" d="M30.6 753.032L564.3599 753.032L564.3599 751.496L30.6 751.496z" stroke="none" fill="#FFFFFF" fill-rule="nonzero" /><path id="2" transform="matrix(1 0 0 -1 0 842)" d="M30.6 609.416L564.3599 609.416L564.3599 607.88L30.6 607.88z" stroke="none" fill="#FFFFFF" fill-rule="nonzero" /><path id="3" transform="matrix(1 0 0 -1 0 842)" d="M30.6 753.032L32.136 753.032L32.136 607.88L30.6 607.88z" stroke="none" fill="#FFFFFF" fill-rule="nonzero" /><path id="4" transform="matrix(1 0 0 -1 0 842)" d="M562.8239 753.032L564.3599 753.032L564.3599 607.88L562.8239 607.88z" stroke="none" fill="#FFFFFF" fill-rule="nonzero" /><path id="5" transform="matrix(1 0 0 -1 0 842)" d="M32.136 738.44L562.8239 738.44L562.8239 737.672L32.136 737.672z" stroke="none" fill="#404040" fill-rule="nonzero" /><path id="6" transform="matrix(1 0 0 -1 0 842)" d="M30.6 604.808L564.3599 604.808L564.3599 603.272L30.6 603.272z" stroke="none" fill="#FFFFFF" fill-rule="nonzero" /><path id="7" transform="matrix(1 0 0 -1 0 842)" d="M30.6 265.352L564.3599 265.352L564.3599 263.816L30.6 263.816z" stroke="none" fill="#FFFFFF" fill-rule="nonzero" /><path id="8" transform="matrix(1 0 0 -1 0 842)" d="M30.6 604.808L32.136 604.808L32.136 263.816L30.6 263.816z" stroke="none" fill="#FFFFFF" fill-rule="nonzero" /><path id="9" transform="matrix(1 0 0 -1 0 842)" d="M562.8239 604.808L564.3599 604.808L564.3599 263.816L562.8239 263.816z" stroke="none" fill="#FFFFFF" fill-rule="nonzero" /><path id="10" transform="matrix(1 0 0 -1 0 842)" d="M32.136 590.216L562.8239 590.216L562.8239 589.448L32.136 589.448z" stroke="none" fill="#404040" fill-rule="nonzero" /><path id="11" transform="matrix(1 0 0 -1 0 842)" d="M30.6 260.744L564.3599 260.744L564.3599 259.208L30.6 259.208z" stroke="none" fill="#FFFFFF" fill-rule="nonzero" /><path id="12" transform="matrix(1 0 0 -1 0 842)" d="M30.6 140.168L564.3599 140.168L564.3599 138.632L30.6 138.632z" stroke="none" fill="#FFFFFF" fill-rule="nonzero" /><path id="13" transform="matrix(1 0 0 -1 0 842)" d="M30.6 260.744L32.136 260.744L32.136 138.632L30.6 138.632z" stroke="none" fill="#FFFFFF" fill-rule="nonzero" /><path id="14" transform="matrix(1 0 0 -1 0 842)" d="M562.8239 260.744L564.3599 260.744L564.3599 138.632L562.8239 138.632z" stroke="none" fill="#FFFFFF" fill-rule="nonzero" /><path id="15" transform="matrix(1 0 0 -1 0 842)" d="M32.136 246.152L562.8239 246.152L562.8239 245.384L32.136 245.384z" stroke="none" fill="#404040" fill-rule="nonzero" /><path id="16" transform="matrix(1 0 0 -1 0 842)" d="M30.6 135.56L564.3599 135.56L564.3599 134.024L30.6 134.024z" stroke="none" fill="#FFFFFF" fill-rule="nonzero" /><path id="17" transform="matrix(1 0 0 -1 0 842)" d="M30.6 135.56L32.136 135.56L32.136 51.08002L30.6 51.08002z" stroke="none" fill="#FFFFFF" fill-rule="nonzero" /><path id="18" transform="matrix(1 0 0 -1 0 842)" d="M562.8239 135.56L564.3599 135.56L564.3599 51.08002L562.8239 51.08002z" stroke="none" fill="#FFFFFF" fill-rule="nonzero" /><path id="19" transform="matrix(1 0 0 -1 0 842)" d="M32.136 120.968L562.8239 120.968L562.8239 120.2L32.136 120.2z" stroke="none" fill="#404040" fill-rule="nonzero" /><path id="380" transform="matrix(1 0 0 -1 0 842)" d="M39.816 690.056C 39.816 689.2077 39.12831 688.52 38.28 688.52C 37.43169 688.52 36.744 689.2077 36.744 690.056C 36.744 690.9044 37.43169 691.592 38.28 691.592C 39.12831 691.592 39.816 690.9044 39.816 690.056z" stroke="#000000" stroke-width="0.7679999" fill="#000000" fill-rule="evenodd" /><path id="400" transform="matrix(1 0 0 -1 0 842)" d="M39.816 676.2321C 39.816 675.3837 39.12831 674.696 38.28 674.696C 37.43169 674.696 36.744 675.3837 36.744 676.2321C 36.744 677.0803 37.43169 677.768 38.28 677.768C 39.12831 677.768 39.816 677.0803 39.816 676.2321z" stroke="#000000" stroke-width="0.7679999" fill="#000000" fill-rule="evenodd" /><path id="761" transform="matrix(1 0 0 -1 0 842)" d="M39.816 627.848C 39.816 626.9997 39.12831 626.312 38.28 626.312C 37.43169 626.312 36.744 626.9997 36.744 627.848C 36.744 628.6964 37.43169 629.384 38.28 629.384C 39.12831 629.384 39.816 628.6964 39.816 627.848z" stroke="#000000" stroke-width="0.7679999" fill="#000000" fill-rule="evenodd" /><path id="1066" transform="matrix(1 0 0 -1 0 842)" d="M39.816 553.3521C 39.816 552.5037 39.12831 551.816 38.28 551.816C 37.43169 551.816 36.744 552.5037 36.744 553.3521C 36.744 554.2003 37.43169 554.8881 38.28 554.8881C 39.12831 554.8881 39.816 554.2003 39.816 553.3521z" stroke="#000000" stroke-width="0.7679999" fill="#000000" fill-rule="evenodd" /><path id="1136" transform="matrix(1 0 0 -1 0 842)" d="M39.816 539.528C 39.816 538.6797 39.12831 537.9921 38.28 537.9921C 37.43169 537.9921 36.744 538.6797 36.744 539.528C 36.744 540.3763 37.43169 541.064 38.28 541.064C 39.12831 541.064 39.816 540.3763 39.816 539.528z" stroke="#000000" stroke-width="0.7679999" fill="#000000" fill-rule="evenodd" /><path id="1195" transform="matrix(1 0 0 -1 0 842)" d="M39.816 525.704C 39.816 524.8557 39.12831 524.168 38.28 524.168C 37.43169 524.168 36.744 524.8557 36.744 525.704C 36.744 526.5524 37.43169 527.24 38.28 527.24C 39.12831 527.24 39.816 526.5524 39.816 525.704z" stroke="#000000" stroke-width="0.7679999" fill="#000000" fill-rule="evenodd" /><path id="1344" transform="matrix(1 0 0 -1 0 842)" d="M39.816 485C 39.816 484.1517 39.12831 483.464 38.28 483.464C 37.43169 483.464 36.744 484.1517 36.744 485C 36.744 485.8483 37.43169 486.536 38.28 486.536C 39.12831 486.536 39.816 485.8483 39.816 485z" stroke="#000000" stroke-width="0.7679999" fill="#000000" fill-rule="evenodd" /><path id="1481" transform="matrix(1 0 0 -1 0 842)" d="M39.816 459.656C 39.816 458.8077 39.12831 458.12 38.28 458.12C 37.43169 458.12 36.744 458.8077 36.744 459.656C 36.744 460.5043 37.43169 461.192 38.28 461.192C 39.12831 461.192 39.816 460.5043 39.816 459.656z" stroke="#000000" stroke-width="0.7679999" fill="#000000" fill-rule="evenodd" /><path id="1620" transform="matrix(1 0 0 -1 0 842)" d="M39.816 434.312C 39.816 433.4637 39.12831 432.776 38.28 432.776C 37.43169 432.776 36.744 433.4637 36.744 434.312C 36.744 435.1603 37.43169 435.848 38.28 435.848C 39.12831 435.848 39.816 435.1603 39.816 434.312z" stroke="#000000" stroke-width="0.7679999" fill="#000000" fill-rule="evenodd" /><path id="1875" transform="matrix(1 0 0 -1 0 842)" d="M39.816 393.608C 39.816 392.7597 39.12831 392.072 38.28 392.072C 37.43169 392.072 36.744 392.7597 36.744 393.608C 36.744 394.4563 37.43169 395.144 38.28 395.144C 39.12831 395.144 39.816 394.4563 39.816 393.608z" stroke="#000000" stroke-width="0.7679999" fill="#000000" fill-rule="evenodd" /><path id="1971" transform="matrix(1 0 0 -1 0 842)" d="M39.816 379.784C 39.816 378.9357 39.12831 378.248 38.28 378.248C 37.43169 378.248 36.744 378.9357 36.744 379.784C 36.744 380.6323 37.43169 381.32 38.28 381.32C 39.12831 381.32 39.816 380.6323 39.816 379.784z" stroke="#000000" stroke-width="0.7679999" fill="#000000" fill-rule="evenodd" /><path id="2066" transform="matrix(1 0 0 -1 0 842)" d="M39.816 365.96C 39.816 365.1117 39.12831 364.424 38.28 364.424C 37.43169 364.424 36.744 365.1117 36.744 365.96C 36.744 366.8083 37.43169 367.496 38.28 367.496C 39.12831 367.496 39.816 366.8083 39.816 365.96z" stroke="#000000" stroke-width="0.7679999" fill="#000000" fill-rule="evenodd" /><path id="2128" transform="matrix(1 0 0 -1 0 842)" d="M39.816 352.136C 39.816 351.2877 39.12831 350.6 38.28 350.6C 37.43169 350.6 36.744 351.2877 36.744 352.136C 36.744 352.9843 37.43169 353.672 38.28 353.672C 39.12831 353.672 39.816 352.9843 39.816 352.136z" stroke="#000000" stroke-width="0.7679999" fill="#000000" fill-rule="evenodd" /><path id="2394" transform="matrix(1 0 0 -1 0 842)" d="M39.816 299.912C 39.816 299.0637 39.12831 298.376 38.28 298.376C 37.43169 298.376 36.744 299.0637 36.744 299.912C 36.744 300.7603 37.43169 301.448 38.28 301.448C 39.12831 301.448 39.816 300.7603 39.816 299.912z" stroke="#000000" stroke-width="0.7679999" fill="#000000" fill-rule="evenodd" /><path id="2498" transform="matrix(1 0 0 -1 0 842)" d="M39.816 286.088C 39.816 285.2397 39.12831 284.552 38.28 284.552C 37.43169 284.552 36.744 285.2397 36.744 286.088C 36.744 286.9363 37.43169 287.624 38.28 287.624C 39.12831 287.624 39.816 286.9363 39.816 286.088z" stroke="#000000" stroke-width="0.7679999" fill="#000000" fill-rule="evenodd" /><path id="2568" transform="matrix(1 0 0 -1 0 842)" d="M39.816 272.264C 39.816 271.4157 39.12831 270.728 38.28 270.728C 37.43169 270.728 36.744 271.4157 36.744 272.264C 36.744 273.1123 37.43169 273.8 38.28 273.8C 39.12831 273.8 39.816 273.1123 39.816 272.264z" stroke="#000000" stroke-width="0.7679999" fill="#000000" fill-rule="evenodd" /><path id="2801" transform="matrix(1 0 0 -1 0 842)" d="M39.816 209.288C 39.816 208.4397 39.12831 207.752 38.28 207.752C 37.43169 207.752 36.744 208.4397 36.744 209.288C 36.744 210.1363 37.43169 210.824 38.28 210.824C 39.12831 210.824 39.816 210.1363 39.816 209.288z" stroke="#000000" stroke-width="0.7679999" fill="#000000" fill-rule="evenodd" /><path id="2916" transform="matrix(1 0 0 -1 0 842)" d="M39.816 183.944C 39.816 183.0957 39.12831 182.408 38.28 182.408C 37.43169 182.408 36.744 183.0957 36.744 183.944C 36.744 184.7923 37.43169 185.48 38.28 185.48C 39.12831 185.48 39.816 184.7923 39.816 183.944z" stroke="#000000" stroke-width="0.7679999" fill="#000000" fill-rule="evenodd" /><path id="3060" transform="matrix(1 0 0 -1 0 842)" d="M39.816 158.6C 39.816 157.7517 39.12831 157.064 38.28 157.064C 37.43169 157.064 36.744 157.7517 36.744 158.6C 36.744 159.4483 37.43169 160.136 38.28 160.136C 39.12831 160.136 39.816 159.4483 39.816 158.6z" stroke="#000000" stroke-width="0.7679999" fill="#000000" fill-rule="evenodd" /><path id="3167" transform="matrix(1 0 0 -1 0 842)" d="M39.816 110.984C 39.816 110.1357 39.12831 109.448 38.28 109.448C 37.43169 109.448 36.744 110.1357 36.744 110.984C 36.744 111.8323 37.43169 112.52 38.28 112.52C 39.12831 112.52 39.816 111.8323 39.816 110.984z" stroke="#000000" stroke-width="0.7679999" fill="#000000" fill-rule="evenodd" /><path id="3289" transform="matrix(1 0 0 -1 0 842)" d="M39.816 97.16003C 39.816 96.31171 39.12831 95.62402 38.28 95.62402C 37.43169 95.62402 36.744 96.31171 36.744 97.16003C 36.744 98.0083 37.43169 98.69604 38.28 98.69604C 39.12831 98.69604 39.816 98.0083 39.816 97.16003z" stroke="#000000" stroke-width="0.7679999" fill="#000000" fill-rule="evenodd" /><path id="3348" transform="matrix(1 0 0 -1 0 842)" d="M39.816 83.336C 39.816 82.48773 39.12831 81.79999 38.28 81.79999C 37.43169 81.79999 36.744 82.48773 36.744 83.336C 36.744 84.18433 37.43169 84.87201 38.28 84.87201C 39.12831 84.87201 39.816 84.18433 39.816 83.336z" stroke="#000000" stroke-width="0.7679999" fill="#000000" fill-rule="evenodd" /><path id="3400" transform="matrix(1 0 0 -1 0 842)" d="M39.816 69.51202C 39.816 68.6637 39.12831 67.97601 38.28 67.97601C 37.43169 67.97601 36.744 68.6637 36.744 69.51202C 36.744 70.36029 37.43169 71.04803 38.28 71.04803C 39.12831 71.04803 39.816 70.36029 39.816 69.51202z" stroke="#000000" stroke-width="0.7679999" fill="#000000" fill-rule="evenodd" /><path id="3487" transform="matrix(1 0 0 -1 0 842)" d="M39.816 55.68799C 39.816 54.83972 39.12831 54.15204 38.28 54.15204C 37.43169 54.15204 36.744 54.83972 36.744 55.68799C 36.744 56.53632 37.43169 57.224 38.28 57.224C 39.12831 57.224 39.816 56.53632 39.816 55.68799z" stroke="#000000" stroke-width="0.7679999" fill="#000000" fill-rule="evenodd" /></g></g></g></svg>