<svg width="67" height="58" xmlns="http://www.w3.org/2000/svg">
 <!-- Created with Method Draw - http://github.com/duopixel/Method-Draw/ -->
 <defs>
  <linearGradient y2="0" x2="0" y1="0" x1="0" id="svg_26">
   <stop offset="0" stop-color="#ffffff"/>
   <stop offset="1" stop-color="#000000"/>
  </linearGradient>
  <filter id="svg_22_blur">
   <feGaussianBlur stdDeviation="0.6" in="SourceGraphic"/>
  </filter>
  <filter id="svg_20_blur">
   <feGaussianBlur stdDeviation="0.7" in="SourceGraphic"/>
  </filter>
  <filter id="svg_24_blur">
   <feGaussianBlur stdDeviation="0.5" in="SourceGraphic"/>
  </filter>
  <filter id="svg_25_blur">
   <feGaussianBlur stdDeviation="0.5" in="SourceGraphic"/>
  </filter>
  <filter id="svg_23_blur">
   <feGaussianBlur stdDeviation="0.5" in="SourceGraphic"/>
  </filter>
  <filter id="svg_21_blur">
   <feGaussianBlur stdDeviation="0.4" in="SourceGraphic"/>
  </filter>
 </defs>
 <g>
  <title>background</title>
  <rect fill="url(#svg_26)" id="canvas_background" height="58" width="67" y="0" x="0"/>
  <g display="none" overflow="visible" y="0" x="0" height="100%" width="100%" id="canvasGrid">
   <rect x="1" y="1" fill="url(#gridpattern)" stroke-width="0" height="56" width="65"/>
  </g>
 </g>
 <g>
  <title>Layer 1</title>
  <path filter="url(#svg_20_blur)" stroke="#ffffff" id="svg_20" d="m1.18795,28.817893l13.845374,-27.739667l36.920994,0l13.845369,27.739667l-13.845369,27.739667l-36.920994,0l-13.845374,-27.739667z" stroke-width="0" fill="#ffffff"/>
  <path filter="url(#svg_21_blur)" stroke="#ffffff" id="svg_21" d="m7.490451,28.415941l11.105652,-22.716848l29.61507,0l11.105648,22.716848l-11.105648,22.716848l-29.61507,0l-11.105652,-22.716848z" stroke-width="0" fill="#000000"/>
  <rect filter="url(#svg_22_blur)" transform="rotate(28 33.468647003173814,28.60523223876953) " stroke="#f79d02" id="svg_22" height="55.815801" width="5.47944" y="0.697331" x="30.728928" stroke-width="0" fill="#ffffff"/>
  <path filter="url(#svg_23_blur)" stroke="#f79d02" id="svg_23" d="m2.080644,30.640033l4.520538,-5.47944l18.082152,0l-4.520538,5.47944l-18.082152,0z" stroke-width="0" fill="#ffffff"/>
  <path filter="url(#svg_24_blur)" stroke="#f79d02" id="svg_24" d="m44.11252,27.467668l3.698623,-5.47944l14.794491,0l-3.698623,5.47944l-14.794491,0z" stroke-width="0" fill="#ffffff"/>
  <path filter="url(#svg_25_blur)" transform="rotate(21 35.78774261474609,47.602386474609375) " stroke="#f79d02" id="svg_25" d="m32.774221,53.190381l1.20541,-11.175993l4.821638,0l-1.20541,11.175993l-4.821638,0z" stroke-width="0" fill="#ffffff"/>
 </g>
</svg>