<svg xmlns="http://www.w3.org/2000/svg" xmlns:xlink="http://www.w3.org/1999/xlink" id="body_1" preserveAspectRatio="xMinYMin meet" viewBox="0 0 793 1123"><defs><clipPath id="1"><path id="" clip-rule="evenodd" transform="matrix(1 0 0 1 0 0)" d="M0 842L0 0L0 0L595 0L595 0L595 842L595 842L0 842z" /></clipPath><clipPath id="2"><path id="" clip-rule="evenodd" transform="matrix(1 0 0 1 0 0)" d="M28.32 28.32001L565.92 28.32001L565.92 28.32001L565.92 762.528L565.92 762.528L28.32 762.528L28.32 762.528L28.32 28.32001z" /></clipPath></defs><g transform="matrix(1.333333 0 0 1.333333 0 0)"><g clip-path="url(#1)"><g clip-path="url(#2)"><path id="1" transform="matrix(1 0 0 -1 0 842)" d="M28.32 743.792L565.92 743.792L565.92 742.256L28.32 742.256z" stroke="none" fill="#FFFFFF" fill-rule="nonzero" /><path id="2" transform="matrix(1 0 0 -1 0 842)" d="M28.32 594.032L565.92 594.032L565.92 592.496L28.32 592.496z" stroke="none" fill="#FFFFFF" fill-rule="nonzero" /><path id="3" transform="matrix(1 0 0 -1 0 842)" d="M28.32 743.792L29.856 743.792L29.856 592.496L28.32 592.496z" stroke="none" fill="#FFFFFF" fill-rule="nonzero" /><path id="4" transform="matrix(1 0 0 -1 0 842)" d="M564.384 743.792L565.92 743.792L565.92 592.496L564.384 592.496z" stroke="none" fill="#FFFFFF" fill-rule="nonzero" /><path id="5" transform="matrix(1 0 0 -1 0 842)" d="M29.856 726.128L564.384 726.128L564.384 725.36L29.856 725.36z" stroke="none" fill="#404040" fill-rule="nonzero" /><path id="6" transform="matrix(1 0 0 -1 0 842)" d="M28.32 587.12L565.92 587.12L565.92 585.584L28.32 585.584z" stroke="none" fill="#FFFFFF" fill-rule="nonzero" /><path id="7" transform="matrix(1 0 0 -1 0 842)" d="M28.32 193.136L565.92 193.136L565.92 191.6L28.32 191.6z" stroke="none" fill="#FFFFFF" fill-rule="nonzero" /><path id="8" transform="matrix(1 0 0 -1 0 842)" d="M28.32 587.12L29.856 587.12L29.856 191.6L28.32 191.6z" stroke="none" fill="#FFFFFF" fill-rule="nonzero" /><path id="9" transform="matrix(1 0 0 -1 0 842)" d="M564.384 587.12L565.92 587.12L565.92 191.6L564.384 191.6z" stroke="none" fill="#FFFFFF" fill-rule="nonzero" /><path id="10" transform="matrix(1 0 0 -1 0 842)" d="M29.856 569.456L564.384 569.456L564.384 568.688L29.856 568.688z" stroke="none" fill="#404040" fill-rule="nonzero" /><path id="11" transform="matrix(1 0 0 -1 0 842)" d="M28.32 186.224L565.92 186.224L565.92 184.688L28.32 184.688z" stroke="none" fill="#FFFFFF" fill-rule="nonzero" /><path id="12" transform="matrix(1 0 0 -1 0 842)" d="M28.32 186.224L29.856 186.224L29.856 79.47198L28.32 79.47198z" stroke="none" fill="#FFFFFF" fill-rule="nonzero" /><path id="13" transform="matrix(1 0 0 -1 0 842)" d="M564.384 186.224L565.92 186.224L565.92 79.47198L564.384 79.47198z" stroke="none" fill="#FFFFFF" fill-rule="nonzero" /><path id="14" transform="matrix(1 0 0 -1 0 842)" d="M29.856 168.56L564.384 168.56L564.384 167.792L29.856 167.792z" stroke="none" fill="#404040" fill-rule="nonzero" /><path id="335" transform="matrix(1 0 0 -1 0 842)" d="M37.536 666.992C 37.536 666.1437 36.84831 665.456 36 665.456C 35.15169 665.456 34.464 666.1437 34.464 666.992C 34.464 667.8403 35.15169 668.528 36 668.528C 36.84831 668.528 37.536 667.8403 37.536 666.992z" stroke="#000000" stroke-width="0.7679999" fill="#000000" fill-rule="evenodd" /><path id="355" transform="matrix(1 0 0 -1 0 842)" d="M37.536 649.328C 37.536 648.4797 36.84831 647.792 36 647.792C 35.15169 647.792 34.464 648.4797 34.464 649.328C 34.464 650.1763 35.15169 650.864 36 650.864C 36.84831 650.864 37.536 650.1763 37.536 649.328z" stroke="#000000" stroke-width="0.7679999" fill="#000000" fill-rule="evenodd" /><path id="472" transform="matrix(1 0 0 -1 0 842)" d="M37.536 617.84C 37.536 616.9917 36.84831 616.304 36 616.304C 35.15169 616.304 34.464 616.9917 34.464 617.84C 34.464 618.6883 35.15169 619.376 36 619.376C 36.84831 619.376 37.536 618.6883 37.536 617.84z" stroke="#000000" stroke-width="0.7679999" fill="#000000" fill-rule="evenodd" /><path id="818" transform="matrix(1 0 0 -1 0 842)" d="M37.536 524.144C 37.536 523.2957 36.84831 522.608 36 522.608C 35.15169 522.608 34.464 523.2957 34.464 524.144C 34.464 524.9923 35.15169 525.68 36 525.68C 36.84831 525.68 37.536 524.9923 37.536 524.144z" stroke="#000000" stroke-width="0.7679999" fill="#000000" fill-rule="evenodd" /><path id="914" transform="matrix(1 0 0 -1 0 842)" d="M37.536 506.48C 37.536 505.6317 36.84831 504.944 36 504.944C 35.15169 504.944 34.464 505.6317 34.464 506.48C 34.464 507.3283 35.15169 508.016 36 508.016C 36.84831 508.016 37.536 507.3283 37.536 506.48z" stroke="#000000" stroke-width="0.7679999" fill="#000000" fill-rule="evenodd" /><path id="1009" transform="matrix(1 0 0 -1 0 842)" d="M37.536 488.816C 37.536 487.9677 36.84831 487.28 36 487.28C 35.15169 487.28 34.464 487.9677 34.464 488.816C 34.464 489.6643 35.15169 490.352 36 490.352C 36.84831 490.352 37.536 489.6643 37.536 488.816z" stroke="#000000" stroke-width="0.7679999" fill="#000000" fill-rule="evenodd" /><path id="1071" transform="matrix(1 0 0 -1 0 842)" d="M37.536 471.152C 37.536 470.3037 36.84831 469.616 36 469.616C 35.15169 469.616 34.464 470.3037 34.464 471.152C 34.464 472.0003 35.15169 472.688 36 472.688C 36.84831 472.688 37.536 472.0003 37.536 471.152z" stroke="#000000" stroke-width="0.7679999" fill="#000000" fill-rule="evenodd" /><path id="1337" transform="matrix(1 0 0 -1 0 842)" d="M37.536 406.64C 37.536 405.7917 36.84831 405.104 36 405.104C 35.15169 405.104 34.464 405.7917 34.464 406.64C 34.464 407.4883 35.15169 408.176 36 408.176C 36.84831 408.176 37.536 407.4883 37.536 406.64z" stroke="#000000" stroke-width="0.7679999" fill="#000000" fill-rule="evenodd" /><path id="1441" transform="matrix(1 0 0 -1 0 842)" d="M37.536 388.976C 37.536 388.1277 36.84831 387.44 36 387.44C 35.15169 387.44 34.464 388.1277 34.464 388.976C 34.464 389.8243 35.15169 390.512 36 390.512C 36.84831 390.512 37.536 389.8243 37.536 388.976z" stroke="#000000" stroke-width="0.7679999" fill="#000000" fill-rule="evenodd" /><path id="1510" transform="matrix(1 0 0 -1 0 842)" d="M37.536 371.312C 37.536 370.4637 36.84831 369.776 36 369.776C 35.15169 369.776 34.464 370.4637 34.464 371.312C 34.464 372.1603 35.15169 372.848 36 372.848C 36.84831 372.848 37.536 372.1603 37.536 371.312z" stroke="#000000" stroke-width="0.7679999" fill="#000000" fill-rule="evenodd" /><path id="1756" transform="matrix(1 0 0 -1 0 842)" d="M37.536 320.624C 37.536 319.7757 36.84831 319.088 36 319.088C 35.15169 319.088 34.464 319.7757 34.464 320.624C 34.464 321.4723 35.15169 322.16 36 322.16C 36.84831 322.16 37.536 321.4723 37.536 320.624z" stroke="#000000" stroke-width="0.7679999" fill="#000000" fill-rule="evenodd" /><path id="1899" transform="matrix(1 0 0 -1 0 842)" d="M37.536 289.136C 37.536 288.2877 36.84831 287.6 36 287.6C 35.15169 287.6 34.464 288.2877 34.464 289.136C 34.464 289.9843 35.15169 290.672 36 290.672C 36.84831 290.672 37.536 289.9843 37.536 289.136z" stroke="#000000" stroke-width="0.7679999" fill="#000000" fill-rule="evenodd" /><path id="2100" transform="matrix(1 0 0 -1 0 842)" d="M37.536 238.448C 37.536 237.5997 36.84831 236.912 36 236.912C 35.15169 236.912 34.464 237.5997 34.464 238.448C 34.464 239.2963 35.15169 239.984 36 239.984C 36.84831 239.984 37.536 239.2963 37.536 238.448z" stroke="#000000" stroke-width="0.7679999" fill="#000000" fill-rule="evenodd" /><path id="2170" transform="matrix(1 0 0 -1 0 842)" d="M37.536 220.784C 37.536 219.9357 36.84831 219.248 36 219.248C 35.15169 219.248 34.464 219.9357 34.464 220.784C 34.464 221.6323 35.15169 222.32 36 222.32C 36.84831 222.32 37.536 221.6323 37.536 220.784z" stroke="#000000" stroke-width="0.7679999" fill="#000000" fill-rule="evenodd" /><path id="2258" transform="matrix(1 0 0 -1 0 842)" d="M37.536 203.12C 37.536 202.2717 36.84831 201.584 36 201.584C 35.15169 201.584 34.464 202.2717 34.464 203.12C 34.464 203.9683 35.15169 204.656 36 204.656C 36.84831 204.656 37.536 203.9683 37.536 203.12z" stroke="#000000" stroke-width="0.7679999" fill="#000000" fill-rule="evenodd" /><path id="2285" transform="matrix(1 0 0 -1 0 842)" d="M37.536 156.272C 37.536 155.4237 36.84831 154.736 36 154.736C 35.15169 154.736 34.464 155.4237 34.464 156.272C 34.464 157.1203 35.15169 157.808 36 157.808C 36.84831 157.808 37.536 157.1203 37.536 156.272z" stroke="#000000" stroke-width="0.7679999" fill="#000000" fill-rule="evenodd" /><path id="2407" transform="matrix(1 0 0 -1 0 842)" d="M37.536 138.608C 37.536 137.7597 36.84831 137.072 36 137.072C 35.15169 137.072 34.464 137.7597 34.464 138.608C 34.464 139.4563 35.15169 140.144 36 140.144C 36.84831 140.144 37.536 139.4563 37.536 138.608z" stroke="#000000" stroke-width="0.7679999" fill="#000000" fill-rule="evenodd" /><path id="2466" transform="matrix(1 0 0 -1 0 842)" d="M37.536 120.944C 37.536 120.0957 36.84831 119.408 36 119.408C 35.15169 119.408 34.464 120.0957 34.464 120.944C 34.464 121.7923 35.15169 122.48 36 122.48C 36.84831 122.48 37.536 121.7923 37.536 120.944z" stroke="#000000" stroke-width="0.7679999" fill="#000000" fill-rule="evenodd" /><path id="2518" transform="matrix(1 0 0 -1 0 842)" d="M37.536 103.28C 37.536 102.4317 36.84831 101.744 36 101.744C 35.15169 101.744 34.464 102.4317 34.464 103.28C 34.464 104.1283 35.15169 104.816 36 104.816C 36.84831 104.816 37.536 104.1283 37.536 103.28z" stroke="#000000" stroke-width="0.7679999" fill="#000000" fill-rule="evenodd" /><path id="2604" transform="matrix(1 0 0 -1 0 842)" d="M37.536 85.61597C 37.536 84.7677 36.84831 84.07996 36 84.07996C 35.15169 84.07996 34.464 84.7677 34.464 85.61597C 34.464 86.46429 35.15169 87.15198 36 87.15198C 36.84831 87.15198 37.536 86.46429 37.536 85.61597z" stroke="#000000" stroke-width="0.7679999" fill="#000000" fill-rule="evenodd" /></g></g></g></svg>